<svg xmlns="http://www.w3.org/2000/svg" viewBox="0 0 500 500"><g id="freepik--background-complete--inject-24"><path d="M443.82,331.1H263.07a5.87,5.87,0,0,1-5.86-5.86V62a5.87,5.87,0,0,1,5.86-5.87H443.82A5.87,5.87,0,0,1,449.68,62V325.24A5.87,5.87,0,0,1,443.82,331.1ZM263.07,56.35A5.62,5.62,0,0,0,257.46,62V325.24a5.62,5.62,0,0,0,5.61,5.61H443.82a5.62,5.62,0,0,0,5.61-5.61V62a5.62,5.62,0,0,0-5.61-5.62Z" style="fill:#e0e0e0"></path><path d="M235.39,331.1H54.64a5.87,5.87,0,0,1-5.86-5.86V62a5.87,5.87,0,0,1,5.86-5.87H235.39A5.87,5.87,0,0,1,241.25,62V325.24A5.87,5.87,0,0,1,235.39,331.1ZM54.64,56.35A5.62,5.62,0,0,0,49,62V325.24a5.62,5.62,0,0,0,5.61,5.61H235.39a5.62,5.62,0,0,0,5.61-5.61V62a5.62,5.62,0,0,0-5.61-5.62Z" style="fill:#e0e0e0"></path><rect x="-0.1" y="392.17" width="500" height="0.25" style="fill:#e0e0e0"></rect><rect x="51.57" y="406.43" width="16.06" height="0.25" style="fill:#e0e0e0"></rect><rect x="170.25" y="403.72" width="53.53" height="0.25" style="fill:#e0e0e0"></rect><rect x="68.63" y="415.72" width="36.25" height="0.25" style="fill:#e0e0e0"></rect><rect x="378.25" y="403.59" width="43.19" height="0.25" style="fill:#e0e0e0"></rect><rect x="430.35" y="403.59" width="6.33" height="0.25" style="fill:#e0e0e0"></rect><rect x="316.11" y="409.82" width="53.89" height="0.25" style="fill:#e0e0e0"></rect><path d="M145.08,94.68S19.66,18.35,21.67,17.45s462.91,0,462.91,0L365.84,94.68Z" style="fill:#ebebeb"></path><path d="M8.9,237.66c1,4.06,6.81,6.17,6.81,6.17s1.18,6.82,3.4,7.14,9.33,0,12.29-3.25a53.11,53.11,0,0,0,4.94-6.32l1.95-.34.11.17a1.21,1.21,0,0,1,0-.18l10.23-1.76s7.11,5.35,13.47,3.08A10.68,10.68,0,0,0,64.59,241a43.38,43.38,0,0,1,2.13,5.69c1.93,6.34-1.1,1.81-2.48,16-.44,4.57-.77,8.88-1,12.88l-.42,5.56c0,.28,0,.56,0,.84-.34,5.6-.62,10.33-1,13.94a181.15,181.15,0,0,0-1,21.43c0,7.85,6.66,21,6.66,21-.7.77-1.24,1.28-1.33,1.17-.31-.37-13.44.78-16.69.78s-3.09-1.87-6.17-1.87-5.82,2.44-7.88,6.38,0,0,0,5.63-8.9,26.84-9.42,34.35,2.91,5.44,5.14,9.57.17,2.81,2.57,6.38a9.37,9.37,0,0,0,6.85,3.75l6.9,7.71s3.62-2,2.79-12.34-2.17-12-2.37-12.07-4.24,0-4.24,0c-.17-.94-2.91,0-4.45-1.13a2.16,2.16,0,0,1-.86-2.62A6,6,0,0,0,40,381.61c.85-1.88-1.2-4.13-.86-6.95S42.88,360.4,46.3,357s5.14.56,10.79,2.25,28.26,5.44,32.37,3.38a21.68,21.68,0,0,0,3.75-2.9l.06,0h0l.14.05a63.79,63.79,0,0,0,7.79,2.63l.1,0h0c11.93,3.17,23,2.6,29.08,2.6a34,34,0,0,0,4.48-.36l-.12.4,7.38-1.75c1.21-.27,2.46-.56,3.73-.88h0l.2-.05a23.82,23.82,0,0,0,.72,4.27s-4,8,0,15.7c0,0-3.45,8.5,0,14.87,0,0-2.7,9.33.53,15.94,0,0-3.77,9,0,15.59,0,0-3.44,8,0,15.23a13.81,13.81,0,0,0-.47,15.1l-1.15,2.2-1.45,2.14h.36l-.1.19h0l0,.05,9.19-.2,0,0h.22l.34-.5a17.44,17.44,0,0,0,.76-16.06c3.44-7.2,0-15.23,0-15.23,3.77-6.61,0-15.58,0-15.58,3.23-6.62.53-15.94.53-15.94,3.45-6.38,0-14.88,0-14.88,4-7.67,0-15.7,0-15.7,2.28-3.28,2.32-7.22,1.83-10.27,9.71-2.9,19.46-6.27,25.74-8.55l.69-.24c1.75,11.72,4.66,22.4,12,23.83,15.56,3,30.47-1.52,43,5.8S259.39,405,263.93,415s7.22,14.34,13.36,15.8a17.47,17.47,0,0,1,1.82.55l8.33,5.6,2.67-24.3h-6.94s2.67-6.44-1.87-8.19-12.56-7.9-12.56-7.9c-9.61-12-4.81-12.88-8-23.72s-10.61-4.68-19.23-12c-.62-4.29,1.41-13.06,3.32-21.65l-.26.3.4-1.84h0c3.79-12.18,8.37-34-1.3-48.35a41.62,41.62,0,0,0-3.45-4.43c5.54-.5,12.26,1,14.92,5.72,3.1,5.55,3.87,12.27,4.13,18.78s.08,13.11,1.57,19.41a35.05,35.05,0,0,0,10.3,17.75,12.32,12.32,0,0,0,5.74,3.31,5.63,5.63,0,0,0,5.84-2.29c1.93-3.05.28-7.18-1.39-10.4a26.86,26.86,0,0,0,5.67,4.75,8.2,8.2,0,0,0,6.92.81,6,6,0,0,0,3.67-6c-.39-3-3.15-4.85-5-7.1-3.49-4.18-4.11-10.37-3.64-16s1.87-11.21,1.71-16.88c-.33-11.55-7.1-21.83-15.2-29.24-4.63-4.23-9.38-5.89-15.4-6.18-5.45-.25-11.35.28-16.29,2.85-5.55,2.9-11.52,6.47-13.94,12.54-12.64-6.6-26.89-4.54-34.37-2.17a23.49,23.49,0,0,1-2.83.67c0-.12,0-.24,0-.36a6.94,6.94,0,0,0-6.06-4.17,28.9,28.9,0,0,0-5.07.54,209.49,209.49,0,0,1-23.15,2.53c.56-3.24,1.06-8.89-1.11-13.32,0,0,3.77-9,0-15.58,0,0,3.45-8,0-15.23a13.81,13.81,0,0,0,.47-15.11L158,214a17.43,17.43,0,0,0,.75-16.06c3.45-7.2,0-15.23,0-15.23,3.77-6.61,0-15.58,0-15.58,3.23-6.61.54-15.94.54-15.94,3.45-6.37,0-14.87,0-14.87,4-7.68,0-15.71,0-15.71,4.42-6.37.43-15.23.43-15.23a22.1,22.1,0,0,0,1.66-7.53,14.9,14.9,0,0,0,7.07-12.93c0-8.11-6-14.68-13.39-14.68s-13.39,6.57-13.39,14.68a14.7,14.7,0,0,0,8.55,13.67,32.13,32.13,0,0,0,.87,4.07,27.75,27.75,0,0,0-.58,15.08s-4,8,0,15.7c0,0-3.45,8.5,0,14.88,0,0-2.69,9.33.54,15.94,0,0-3.77,9,0,15.58,0,0-3.45,8,0,15.23a13.8,13.8,0,0,0-.47,15.11l-.34.51a17.41,17.41,0,0,0-.75,16.05c-3.45,7.21,0,15.23,0,15.23-3.77,6.61,0,15.59,0,15.59-3.23,6.61-.54,15.94-.54,15.94-.1.18-.17.37-.26.56-3.2,0-6.4,0-9.6-.13a5.25,5.25,0,0,0-3.06.5c-1.18.75-1.65,2.27-2,3.76-2.19-.81-8.56-3.33-10.83-6.07a9.43,9.43,0,0,1-1.45-2.81,7.74,7.74,0,0,0,4.27,2.83,7.61,7.61,0,0,0,7.15-2.9,15.4,15.4,0,0,0,3.09-7.9,24.24,24.24,0,0,0-4.67-17.67,16.72,16.72,0,0,1-2.79-4.12,20.19,20.19,0,0,1-.72-5.23c-.63-6.81-5.26-13-11.24-15,1.68,0,2.83-2.18,2.4-4a5.81,5.81,0,0,0-3.45-3.71c-1.55-.7-3.23-1-4.78-1.69-6.6-3-9.35-12.2-15.86-15.38-3.23-1.58-7-1.43-10.25-2.86a35,35,0,0,1-6.06-4A12.41,12.41,0,0,0,72.34,185a6,6,0,0,0-4.49,1.8l-.76,1a26.2,26.2,0,0,0-11-14.66.93.93,0,0,0-1.4.75,45.21,45.21,0,0,0-.07,9,6.31,6.31,0,0,0-4,1.14c-1.6,1.24-2.34,3.46-3.8,4.9a5.46,5.46,0,0,1-6.16,1.07c-1.51-.73-3.05-2.21-4.57-1.5-1.34.64-1.61,2.62-1.34,4.19a10.59,10.59,0,0,0,6.72,8.16c-1.91,1.52-3.23,2.91-3.48,4-1.19,5-2.37,5.68-2.37,5.68l-11,8.51-.6-.49.4.64L17,225s-4-1.14-4.89,1a9.28,9.28,0,0,0-.74,3.9S7.86,233.61,8.9,237.66Z" style="fill:#ebebeb"></path><path d="M202.57,237.66c1,4.06,6.81,6.17,6.81,6.17s1.19,6.82,3.41,7.14,9.33,0,12.29-3.25A52.35,52.35,0,0,0,230,241.4l2-.34.11.17a1.21,1.21,0,0,0,0-.18l10.23-1.76s7.11,5.35,13.48,3.08a10.88,10.88,0,0,0,2.54-1.35,44.88,44.88,0,0,1,2.13,5.69c1.92,6.34-1.11,1.81-2.48,16-.45,4.57-.78,8.88-1.05,12.88l-.42,5.56c0,.28,0,.56,0,.84-.34,5.6-.61,10.33-1,13.94a179,179,0,0,0-1,21.43c0,7.85,6.66,21,6.67,21-.71.77-1.25,1.28-1.34,1.17-.3-.37-13.44.78-16.69.78s-3.08-1.87-6.17-1.87-5.82,2.44-7.87,6.38,0,0,0,5.63-8.91,26.84-9.42,34.35,2.91,5.44,5.13,9.57.17,2.81,2.57,6.38a9.37,9.37,0,0,0,6.85,3.75l6.91,7.71s3.61-2,2.79-12.34-2.17-12-2.38-12.07-4.23,0-4.23,0c-.18-.94-2.92,0-4.46-1.13a2.15,2.15,0,0,1-.85-2.62,6.05,6.05,0,0,0,1.71-2.44c.86-1.88-1.2-4.13-.86-6.95S236.55,360.4,240,357s5.13.56,10.79,2.25,28.26,5.44,32.37,3.38a21.32,21.32,0,0,0,3.74-2.9l.06,0h0l.14.05a63.22,63.22,0,0,0,7.79,2.63l.09,0h0c11.93,3.17,22.95,2.6,29.08,2.6a34,34,0,0,0,4.48-.36l-.12.4,7.39-1.75c1.2-.27,2.45-.56,3.72-.88h0l.2-.05a23.82,23.82,0,0,0,.72,4.27s-4,8,0,15.7c0,0-3.45,8.5,0,14.87,0,0-2.69,9.33.54,15.94,0,0-3.77,9,0,15.59,0,0-3.45,8,0,15.23a13.79,13.79,0,0,0-.47,15.1l-1.16,2.2-1.44,2.14h.36l-.11.19h0l0,.05,9.19-.2,0,0h.22l.34-.5a17.46,17.46,0,0,0,.75-16.06c3.45-7.2,0-15.23,0-15.23,3.77-6.61,0-15.58,0-15.58,3.23-6.62.54-15.94.54-15.94,3.45-6.38,0-14.88,0-14.88,4-7.67,0-15.7,0-15.7,2.27-3.28,2.32-7.22,1.82-10.27,9.71-2.9,19.46-6.27,25.74-8.55l.69-.24c1.75,11.72,4.67,22.4,12,23.83,15.56,3,30.47-1.52,43,5.8S453.07,405,457.61,415s7.21,14.34,13.35,15.8a16.77,16.77,0,0,1,1.82.55l8.33,5.6,2.67-24.3h-6.94s2.67-6.44-1.87-8.19-12.55-7.9-12.55-7.9c-9.62-12-4.81-12.88-8-23.72s-10.61-4.68-19.23-12c-.61-4.29,1.41-13.06,3.33-21.65l-.27.3c.25-1.14.41-1.84.41-1.84h0c3.78-12.18,8.36-34-1.31-48.35a42.9,42.9,0,0,0-3.44-4.43c5.53-.5,12.25,1,14.91,5.72,3.11,5.55,3.88,12.27,4.13,18.78s.08,13.11,1.58,19.41a35,35,0,0,0,10.29,17.75,12.42,12.42,0,0,0,5.74,3.31,5.64,5.64,0,0,0,5.85-2.29c1.92-3.05.27-7.18-1.4-10.4a26.86,26.86,0,0,0,5.67,4.75,8.21,8.21,0,0,0,6.92.81,6,6,0,0,0,3.67-6c-.39-3-3.15-4.85-5-7.1-3.5-4.18-4.12-10.37-3.64-16s1.86-11.21,1.7-16.88c-.33-11.55-7.1-21.83-15.2-29.24-4.62-4.23-9.38-5.89-15.39-6.18-5.46-.25-11.36.28-16.29,2.85-5.55,2.9-11.53,6.47-13.94,12.54-12.65-6.6-26.89-4.54-34.37-2.17a24.45,24.45,0,0,1-2.83.67c0-.12,0-.24,0-.36a7,7,0,0,0-6.06-4.17,29,29,0,0,0-5.08.54,209.49,209.49,0,0,1-23.15,2.53c.56-3.24,1.06-8.89-1.11-13.32,0,0,3.77-9,0-15.58,0,0,3.45-8,0-15.23a13.81,13.81,0,0,0,.47-15.11l.34-.51a17.43,17.43,0,0,0,.75-16.06c3.45-7.2,0-15.23,0-15.23,3.78-6.61,0-15.58,0-15.58,3.24-6.61.54-15.94.54-15.94,3.45-6.37,0-14.87,0-14.87,4-7.68,0-15.71,0-15.71,4.42-6.37.43-15.23.43-15.23A22.25,22.25,0,0,0,355,97.8a14.92,14.92,0,0,0,7.06-12.93c0-8.11-6-14.68-13.39-14.68S335.3,76.76,335.3,84.87a14.71,14.71,0,0,0,8.56,13.67,32,32,0,0,0,.86,4.07,27.75,27.75,0,0,0-.58,15.08s-4,8,0,15.7c0,0-3.44,8.5,0,14.88,0,0-2.69,9.33.54,15.94,0,0-3.77,9,0,15.58,0,0-3.44,8,0,15.23a13.82,13.82,0,0,0-.47,15.11l-.33.51a17.42,17.42,0,0,0-.76,16.05c-3.45,7.21,0,15.23,0,15.23-3.77,6.61,0,15.59,0,15.59-3.23,6.61-.54,15.94-.54,15.94-.1.18-.17.37-.26.56-3.2,0-6.4,0-9.6-.13a5.21,5.21,0,0,0-3.05.5c-1.18.75-1.66,2.27-2,3.76-2.19-.81-8.55-3.33-10.82-6.07a9.43,9.43,0,0,1-1.45-2.81,6.91,6.91,0,0,0,11.41-.07,15.49,15.49,0,0,0,3.1-7.9,24.28,24.28,0,0,0-4.67-17.67,16.48,16.48,0,0,1-2.8-4.12,19.76,19.76,0,0,1-.71-5.23c-.64-6.81-5.26-13-11.24-15,1.67,0,2.82-2.18,2.4-4a5.83,5.83,0,0,0-3.46-3.71c-1.55-.7-3.22-1-4.77-1.69-6.61-3-9.35-12.2-15.87-15.38-3.23-1.58-7-1.43-10.25-2.86a34.58,34.58,0,0,1-6.05-4c-2-1.41-4.16-2.65-6.51-2.74a6,6,0,0,0-4.5,1.8l-.76,1a26.23,26.23,0,0,0-10.94-14.66.94.94,0,0,0-1.41.75,45.21,45.21,0,0,0-.07,9,6.26,6.26,0,0,0-4,1.14c-1.61,1.24-2.35,3.46-3.81,4.9a5.45,5.45,0,0,1-6.16,1.07c-1.5-.73-3-2.21-4.56-1.5-1.35.64-1.61,2.62-1.35,4.19a10.59,10.59,0,0,0,6.72,8.16c-1.91,1.52-3.23,2.91-3.48,4-1.18,5-2.37,5.68-2.37,5.68l-11,8.51-.6-.49.41.64L210.71,225s-4-1.14-4.88,1a9.09,9.09,0,0,0-.74,3.9S201.53,233.61,202.57,237.66Z" style="fill:#ebebeb"></path><polygon points="331.4 464.12 175.37 464.12 143.41 70.19 365.84 70.19 331.4 464.12" style="fill:#ebebeb"></polygon><polygon points="148.69 135.22 177.12 135.22 202.33 436.51 173.13 436.51 148.69 135.22" style="fill:#fafafa"></polygon><polygon points="360.08 135.22 331.65 135.22 306.44 436.51 335.64 436.51 360.08 135.22" style="fill:#fafafa"></polygon><polygon points="197.41 135.22 220.48 436.51 286.9 436.51 307.67 135.22 197.41 135.22" style="fill:#f5f5f5"></polygon></g><g id="freepik--Shadow--inject-24"><path d="M458.88,459.88c0,3.39-93.52,6.14-208.88,6.14s-208.88-2.75-208.88-6.14,93.52-6.13,208.88-6.13S458.88,456.5,458.88,459.88Z" style="fill:#f5f5f5"></path></g><g id="freepik--Sparkles--inject-24"><path d="M156.73,191.18c-.72,0-7.76.55-8.76,8.72h-1.15s.34-8-8.76-8.39l.05-1.27c.73,0,7.49-.3,8.48-8.47h1.15s-.78,7.36,9,8.52Z" style="fill:#37474F"></path><path d="M354,122.45c-.72,0-7.77.56-8.76,8.73h-1.16s.35-8-8.75-8.4l.05-1.26c.72,0,7.48-.31,8.47-8.48H345s-.78,7.37,9,8.52Z" style="fill:#37474F"></path><path d="M420.8,313.49c-.72,0-7.77.55-8.76,8.72h-1.16s.35-8-8.75-8.4l.05-1.26c.72,0,7.48-.31,8.47-8.48h1.16s-.78,7.37,9,8.52Z" style="fill:#37474F"></path><path d="M83.4,359.43c-.72,0-7.77.55-8.76,8.72H73.49s.34-8-8.76-8.39l0-1.26c.72,0,7.48-.31,8.48-8.48h1.15s-.78,7.37,9,8.52Z" style="fill:#37474F"></path><path d="M219.27,419.62c-.72,0-7.77.55-8.76,8.72h-1.15s.34-8-8.76-8.4l.05-1.26c.72,0,7.49-.3,8.48-8.47h1.15s-.78,7.36,9,8.52Z" style="fill:#37474F"></path><path d="M194,407.18a4,4,0,0,0-3.83,3.81h-.5s.15-3.48-3.83-3.67l0-.55a3.81,3.81,0,0,0,3.71-3.7h.5s-.34,3.22,3.93,3.72Z" style="fill:#37474F"></path><path d="M135.79,169a4.44,4.44,0,0,0-4.21,4.19H131s.16-3.83-4.21-4l0-.61c.34,0,3.59-.14,4.07-4.07h.55s-.37,3.54,4.32,4.1Z" style="fill:#37474F"></path><path d="M372.61,139.1a4.43,4.43,0,0,0-4.21,4.18h-.55s.16-3.82-4.21-4l0-.6c.34,0,3.59-.15,4.07-4.08h.55s-.37,3.54,4.32,4.1Z" style="fill:#37474F"></path><path d="M432.33,283.28a4.44,4.44,0,0,0-4.21,4.19h-.56s.17-3.83-4.2-4l0-.61c.35,0,3.6-.14,4.07-4.07H428s-.38,3.54,4.32,4.09Z" style="fill:#37474F"></path><path d="M320.7,411.46a4.44,4.44,0,0,0-4.21,4.19h-.56s.17-3.83-4.2-4l0-.61c.35,0,3.6-.14,4.07-4.07h.56s-.38,3.54,4.32,4.09Z" style="fill:#37474F"></path><path d="M83,336.17a4.44,4.44,0,0,0-4.21,4.19h-.55s.16-3.83-4.21-4l0-.61a4.19,4.19,0,0,0,4.08-4.07h.55s-.37,3.54,4.32,4.09Z" style="fill:#37474F"></path><path d="M311.75,163.43a4.43,4.43,0,0,0-4.21,4.19H307s.16-3.83-4.21-4l0-.61a4.2,4.2,0,0,0,4.07-4.07h.55s-.37,3.54,4.32,4.09Z" style="fill:#37474F"></path></g><g id="freepik--carousel-horse--inject-24"><path d="M263.86,459.4a13.25,13.25,0,0,0-.53-15.57c3.89-7.43,0-15.7,0-15.7,4.26-6.82,0-16.07,0-16.07,3.65-6.82.61-16.43.61-16.43,3.89-6.58,0-15.34,0-15.34,4.5-7.91,0-16.19,0-16.19a26.2,26.2,0,0,0-.66-15.54c3.14-10.13-.85-15.69-.85-15.69v-.33A43.8,43.8,0,0,0,263.9,324a20.56,20.56,0,0,0-1.87-8.78s4.51-9.13-.48-15.7c0,0,4.5-8.28,0-16.19,0,0,3.89-8.76,0-15.34,0,0,3-9.61-.61-16.43,0,0,4.26-9.25,0-16.07,0,0,3.89-8.27,0-15.7a16.61,16.61,0,0,0-.85-16.55l-.39-.53a13.23,13.23,0,0,0-.53-15.57c3.9-7.43,0-15.7,0-15.7,4.26-6.82,0-16.07,0-16.07,3.66-6.82.61-16.43.61-16.43,3.9-6.58,0-15.34,0-15.34,4.51-7.91,0-16.19,0-16.19a26.25,26.25,0,0,0-.65-15.54c3.13-10.13-.26-16.29-.26-16.29l-9.54,1.73a43.36,43.36,0,0,0-1.45,8.58,20.47,20.47,0,0,0,1.86,8.78s-4.5,9.13.49,15.7c0,0-4.51,8.28,0,16.19,0,0-3.9,8.76,0,15.33,0,0-3,9.62.61,16.44,0,0-4.26,9.25,0,16.06,0,0-3.9,8.28,0,15.71a16.58,16.58,0,0,0,.85,16.55l.38.52a13.25,13.25,0,0,0,.53,15.58c-3.9,7.42,0,15.7,0,15.7-4.26,6.82,0,16.07,0,16.07-3.65,6.81-.61,16.43-.61,16.43-3.89,6.57,0,15.34,0,15.34-4.5,7.91,0,16.18,0,16.18a26.24,26.24,0,0,0,.66,15.55c-3.14,10.12.84,15.68.84,15.68V334a43,43,0,0,0-1.46,8.58,20.47,20.47,0,0,0,1.86,8.78s-4.5,9.13.49,15.7c0,0-4.5,8.28,0,16.19,0,0-3.9,8.76,0,15.33,0,0-3,9.62.61,16.44,0,0-4.26,9.25,0,16.06,0,0-3.9,8.28,0,15.7a16.6,16.6,0,0,0,.85,16.56l.38.52h10.21Z" style="fill:#37474F"></path><path d="M263.77,459.45a13.23,13.23,0,0,0-.53-15.57c3.9-7.43,0-15.71,0-15.71,4.26-6.81,0-16.06,0-16.06,3.65-6.82.61-16.43.61-16.43,3.9-6.58,0-15.34,0-15.34,4.51-7.91,0-16.19,0-16.19a26.25,26.25,0,0,0-.65-15.54c3.13-10.13-.85-15.69-.85-15.69v-.33a43.36,43.36,0,0,0,1.45-8.58,20.47,20.47,0,0,0-1.86-8.78s4.5-9.13-.49-15.7c0,0,4.51-8.28,0-16.19,0,0,3.9-8.77,0-15.34,0,0,3.05-9.61-.61-16.43,0,0,4.26-9.25,0-16.07,0,0,3.9-8.27,0-15.7a16.58,16.58,0,0,0-.85-16.55l-.38-.53a13.23,13.23,0,0,0-.53-15.57c3.9-7.43,0-15.7,0-15.7,4.26-6.82,0-16.07,0-16.07,3.65-6.82.61-16.43.61-16.43,3.89-6.58,0-15.34,0-15.34,4.5-7.91,0-16.19,0-16.19A26.2,26.2,0,0,0,259,91.88c3.14-10.13-.26-16.29-.26-16.29l-9.53,1.73a43.8,43.8,0,0,0-1.46,8.58,20.56,20.56,0,0,0,1.87,8.78s-4.51,9.13.48,15.7c0,0-4.5,8.28,0,16.19,0,0-3.89,8.76,0,15.33,0,0-3,9.62.61,16.44,0,0-4.26,9.25,0,16.06,0,0-3.89,8.28,0,15.7a16.63,16.63,0,0,0,.85,16.56l.39.52a13.25,13.25,0,0,0,.53,15.58c-3.9,7.42,0,15.7,0,15.7-4.26,6.82,0,16.07,0,16.07-3.66,6.81-.61,16.43-.61,16.43-3.9,6.57,0,15.33,0,15.33-4.51,7.92,0,16.19,0,16.19a26.29,26.29,0,0,0,.65,15.55c-3.13,10.12.85,15.68.85,15.68v.34a43.8,43.8,0,0,0-1.46,8.58,20.56,20.56,0,0,0,1.87,8.78s-4.5,9.12.49,15.7c0,0-4.51,8.27,0,16.19,0,0-3.9,8.76,0,15.33,0,0-3.05,9.62.6,16.43,0,0-4.26,9.26,0,16.07,0,0-3.89,8.28,0,15.7a16.61,16.61,0,0,0,.86,16.56l.38.52,10.38.21Z" style="fill:#fff;opacity:0.30000000000000004"></path><path d="M263.49,459.41a13.25,13.25,0,0,0-.53-15.58c3.9-7.42,0-15.7,0-15.7,4.26-6.81,0-16.06,0-16.06,3.65-6.82.61-16.44.61-16.44,3.9-6.57,0-15.33,0-15.33,4.51-7.92,0-16.19,0-16.19a26.25,26.25,0,0,0-.65-15.54c3.13-10.13-.85-15.69-.85-15.69v-.34a43.36,43.36,0,0,0,1.45-8.58,20.4,20.4,0,0,0-1.86-8.77s4.5-9.13-.49-15.71c0,0,4.51-8.27,0-16.18,0,0,3.9-8.77,0-15.34,0,0,3.05-9.62-.61-16.43,0,0,4.26-9.25,0-16.07,0,0,3.9-8.28,0-15.7a16.6,16.6,0,0,0-.85-16.56l-.38-.52a13.25,13.25,0,0,0-.53-15.58c3.9-7.42,0-15.7,0-15.7,4.26-6.81,0-16.06,0-16.06,3.65-6.82.61-16.44.61-16.44,3.89-6.57,0-15.33,0-15.33,4.5-7.91,0-16.19,0-16.19a26.2,26.2,0,0,0-.66-15.54c3.14-10.13-.26-16.3-.26-16.3L249,77.28a43.8,43.8,0,0,0-1.46,8.58,20.5,20.5,0,0,0,1.87,8.77s-4.51,9.13.48,15.71c0,0-4.5,8.27,0,16.18,0,0-3.89,8.77,0,15.34,0,0-3,9.62.61,16.43,0,0-4.26,9.25,0,16.07,0,0-3.89,8.28,0,15.7a16.61,16.61,0,0,0,.85,16.55l.39.53a13.25,13.25,0,0,0,.53,15.58c-3.9,7.42,0,15.7,0,15.7-4.26,6.81,0,16.06,0,16.06-3.66,6.82-.61,16.44-.61,16.44-3.9,6.57,0,15.33,0,15.33-4.51,7.91,0,16.19,0,16.19a26.25,26.25,0,0,0,.65,15.54c-3.13,10.13.85,15.69.85,15.69V334a43.8,43.8,0,0,0-1.46,8.58,20.5,20.5,0,0,0,1.87,8.77s-4.5,9.13.49,15.71c0,0-4.51,8.27,0,16.18,0,0-3.9,8.77,0,15.34,0,0-3.05,9.62.6,16.43,0,0-4.26,9.25,0,16.07,0,0-3.89,8.28,0,15.7a16.59,16.59,0,0,0,.86,16.55l.38.53H266.8Z" style="fill:none"></path><path d="M250.14,141.86s-.07.23-.17.6c1.88,3.16,7.47,10.71,9.17,13l-.06-.12c3.27-6.09,1.19-14.4.71-16.1L250,126.77C249.47,128.16,246.6,135.9,250.14,141.86Z" style="fill:#fff;opacity:0.30000000000000004"></path><path d="M259.14,187c3.79-7.39-.06-15.58-.06-15.58l0-.05-8.75-12.1c-.94,2.52-3.05,9.61.38,15.11,0,0-.05.11-.12.29C253.13,178.4,256.81,183.67,259.14,187Z" style="fill:#fff;opacity:0.30000000000000004"></path><path d="M260.85,219.76a16.59,16.59,0,0,0-.82-16.49l-9.4-13a16.66,16.66,0,0,0,.24,15.11c2.1,3.33,7.27,10.74,10.26,15C261,220.17,261,220,260.85,219.76Z" style="fill:#fff;opacity:0.30000000000000004"></path><path d="M261,251.19a24.77,24.77,0,0,0,1.7-7.27l-.1-3.44a12.56,12.56,0,0,0-1.74-5v0l-8.68-12c-3.3,7.23.33,15,.33,15s-.1.19-.16.28C254.93,242.55,258.7,247.94,261,251.19Z" style="fill:#fff;opacity:0.30000000000000004"></path><path d="M261.45,268l0,0-9.56-12.15c-2.45,6.09-.45,13.65-.07,14.93,2.08,3.06,6.66,8.88,9.62,12.58C261.52,283.15,265.32,274.48,261.45,268Z" style="fill:#fff;opacity:0.30000000000000004"></path><path d="M262.13,315.6c-.12-.27-.19-.41-.19-.41s4.51-9.13-.49-15.71c0,0,.06-.1.13-.25l-10-13.86c.21.56.35.88.35.88-3.59,6.3-1.47,12.81-.45,15.22C252.74,303.78,258.59,311.19,262.13,315.6Z" style="fill:#fff;opacity:0.30000000000000004"></path><path d="M262.56,333.24l-10.07-15c-3,10,.91,15.44.91,15.44V334l0,.1c2.28,3.54,7,10.33,9.85,14.36C265.85,339.86,263.34,334.59,262.56,333.24Z" style="fill:#fff;opacity:0.30000000000000004"></path><path d="M254.29,367.07l-.08.15c2.37,3.7,7.57,11.13,10.34,15.06a18.45,18.45,0,0,0-.71-2c4.48-7.87.06-16.09,0-16.18l-10.1-12.65C253.27,352.51,249.61,360.91,254.29,367.07Z" style="fill:#fff;opacity:0.30000000000000004"></path><path d="M254.2,398.91c1.43,2.41,5.91,8.88,9.22,13.6-.11-.28-.18-.44-.18-.44,3.65-6.82.6-16.44.6-16.44h0l-9.56-12.37s-3.89,8.77,0,15.33C254.29,398.59,254.25,398.71,254.2,398.91Z" style="fill:#fff;opacity:0.30000000000000004"></path><path d="M254.74,415.4c-.74,1.79-3.6,9.68.16,15.69l-.09.19c1.73,2.72,5.45,8.06,8.5,12.39,3.75-7.38-.07-15.54-.07-15.54.11-.18.19-.37.3-.56Z" style="fill:#fff;opacity:0.30000000000000004"></path><path d="M266.51,464.07l-2.75-4.66,0-.06-9-12.42a16.69,16.69,0,0,0-.4,13.94l.18.35c.32.57.91,1.5,1.66,2.65Z" style="fill:#fff;opacity:0.30000000000000004"></path><path d="M250.14,110.34a2.69,2.69,0,0,0-.16.31c3,4.16,7.38,9.81,9.74,12.86,4.21-7.46.44-15.22,0-16.05l-10.1-12.78C249.42,95.12,245.27,103.93,250.14,110.34Z" style="fill:#fff;opacity:0.30000000000000004"></path><circle cx="254.64" cy="73.53" r="15.13" style="fill:#37474F"></circle><circle cx="254.64" cy="73.53" r="15.13" style="fill:#fff;opacity:0.6000000000000001"></circle><path d="M154.42,249.5c-5.57-2.66-12.24-3.2-18.4-2.94-6.8.29-12.17,2-17.39,6.37-9.15,7.64-16.81,18.23-17.18,30.15-.18,5.84,1.39,11.58,1.93,17.4s-.17,12.2-4.12,16.5c-2.13,2.32-5.25,4.2-5.68,7.32-.38,2.67,1.61,5.3,4.14,6.21a10,10,0,0,0,7.82-.84,29.72,29.72,0,0,0,6.41-4.9c-1.89,3.33-3.75,7.58-1.58,10.72a6.66,6.66,0,0,0,6.61,2.37,14.47,14.47,0,0,0,6.48-3.41,35.63,35.63,0,0,0,11.63-18.3c1.69-6.5,1.49-13.31,1.78-20s1.16-13.64,4.67-19.36,13.32-6.83,19.89-5.47l9.2-7.7C168.28,256.62,161.07,252.67,154.42,249.5Z" style="fill:#263238"></path><path d="M200.29,337.71s6.53-4.36,19.3,0,49.19,15.88,62.89,15.88,49,2.34,71.14-27.55c0,0,7.53-13.56,7.53-21.65a169.94,169.94,0,0,0-1.14-22.1c-.94-7.47-1.25-19.61-2.8-34.25s-5-10-2.81-16.5,4.36-9,4.36-9l-1.24-51.68s-20.24,7.47-32.38,18.37-25.84,20.24-30.52,53.86c0,0-.93,11.21-4,14.63s-13.08,6.54-13.08,6.54-56.67-.62-68.5-4-38.64-6.23-54.5,15.25,2.2,59.16,2.2,59.16Z" style="fill:#37474F"></path><path d="M306.46,331.34c.58.38,17.61,17.61,22.25,19.74s30.19-1.75,36.57-3.49,8.32-5.8,12.19-2.32,7.75,15.29,8.13,18.19-1.93,5.22-1,7.16a6.31,6.31,0,0,0,1.94,2.52,2.11,2.11,0,0,1-1,2.7c-1.74,1.17-4.84.2-5,1.17s3.48,17.22,3.48,17.22,5-.2,7.74-3.87.39-2.32,2.91-6.58,6.38-2.13,5.8-9.87-10.64-29.61-10.64-35.41,2.32-1.74,0-5.81-5.42-6.58-8.9-6.58-3.29,1.94-7,1.94-18.51-1.19-18.86-.81-6.29-6.35-6.29-6.35-29.42-11.81-36-3.87S306.46,331.34,306.46,331.34Z" style="fill:#37474F"></path><path d="M380.57,377s-4.55-.09-4.78,0-1.75,1.83-2.69,12.44,3.15,12.72,3.15,12.72l7.8-7.94Z" style="fill:#263238"></path><g style="opacity:0.30000000000000004"><path d="M317.8,312.83a52.88,52.88,0,0,0-3.9,34.4c.23,1,.56,3.11,1.45,3.69l9.07-2.8C318.85,337.54,318.27,324.78,317.8,312.83Z"></path></g><g style="opacity:0.30000000000000004"><path d="M353.82,302.63a18.67,18.67,0,0,0-4,11.24A21.2,21.2,0,0,0,353.62,326a98.39,98.39,0,0,0,2.09-13.32A19.53,19.53,0,0,0,353.82,302.63Z"></path></g><polygon points="247.68 290.16 264.97 350.92 277.56 353.63 256.23 289.5 247.68 290.16" style="fill:#fff;opacity:0.30000000000000004"></polygon><path d="M270,282.8l-35.3.9a64.39,64.39,0,0,0,10.76,20,28.59,28.59,0,0,0,7.68,7.12,13.56,13.56,0,0,0,10.12,1.73c5.53-1.46,9-7.25,9.59-12.94S271.66,288.25,270,282.8Z" style="fill:#37474F"></path><g style="opacity:0.30000000000000004"><path d="M270,282.8l-35.3.9a64.39,64.39,0,0,0,10.76,20,28.59,28.59,0,0,0,7.68,7.12,13.56,13.56,0,0,0,10.12,1.73c5.53-1.46,9-7.25,9.59-12.94S271.66,288.25,270,282.8Z" style="fill:#fff"></path></g><path d="M280.4,274.53l-1.9-9.86c-.34-1.75-.82-3.7-2.36-4.6a6.39,6.39,0,0,0-3.45-.52,259.06,259.06,0,0,1-47.87-2.79,35.52,35.52,0,0,0-5.73-.55,7.88,7.88,0,0,0-6.84,4.29h0c-1.62,10,3.93,21.05,12.81,25.85,6.13,3.3,13.36,3.85,20.32,3.66s13.94-1,20.86-.26c3.94.45,8.34,1.32,11.54-1a9.16,9.16,0,0,0,3.35-6.63A27,27,0,0,0,280.4,274.53Z" style="fill:#37474F"></path><g style="opacity:0.30000000000000004"><path d="M280.4,274.53l-1.9-9.86c-.34-1.75-.82-3.7-2.36-4.6a6.39,6.39,0,0,0-3.45-.52,259.06,259.06,0,0,1-47.87-2.79,35.52,35.52,0,0,0-5.73-.55,7.88,7.88,0,0,0-6.84,4.29h0c-1.62,10,3.93,21.05,12.81,25.85,6.13,3.3,13.36,3.85,20.32,3.66s13.94-1,20.86-.26c3.94.45,8.34,1.32,11.54-1a9.16,9.16,0,0,0,3.35-6.63A27,27,0,0,0,280.4,274.53Z" style="fill:#fff"></path></g><g style="opacity:0.30000000000000004"><path d="M238.1,289.92l34.06.09a37.36,37.36,0,0,1-35.19.19"></path></g><g style="opacity:0.2"><path d="M182.27,270.79c-.48-2.24-3.72-5.69-9.43-2.62a41.3,41.3,0,0,0-18.39,37.34,9.43,9.43,0,0,0,1.38,4.76,3.8,3.8,0,0,0,4.37,1.55c2.14-.93,2.3-3.82,2.39-6.14A31.48,31.48,0,0,1,173.83,283,35.05,35.05,0,0,0,179,278.5C180.42,276.74,183.21,275.24,182.27,270.79Z" style="fill:#fff"></path></g><path d="M153,325.29s5.62,22.6,3.92,23.91c-9.74,7.54-18.11,1.21-21.73,12.38S137,373.65,126.16,386c0,0-9.06,6.34-14.19,8.15s-2.11,8.45-2.11,8.45H102l3,25.05a24.37,24.37,0,0,1,11.47-6.34c6.94-1.51,10-6,15.09-16.3s14.18-28.36,28.37-35.91,31-2.86,48.61-6c13.71-2.44,13.74-31.24,16.76-47.54S153,325.29,153,325.29Z" style="fill:#37474F"></path><polygon points="105.03 427.67 102.01 402.62 109.31 402.62 114.45 421.89 105.03 427.67" style="fill:#263238"></polygon><g style="opacity:0.30000000000000004"><path d="M236,343c-1.17-9.91-3-20.09-8.44-28.44S212.16,300,202.35,301.86a35.07,35.07,0,0,1,16.49,16.8A33.42,33.42,0,0,1,222,338.53Z"></path></g><path d="M156.94,349.2s5.45-4.18,6.78-7.14-10.54-15.18-10.54-15.18C155.34,335.73,157.63,344.78,156.94,349.2Z" style="opacity:0.30000000000000004"></path><g style="opacity:0.30000000000000004"><path d="M292.45,254.48a49.91,49.91,0,0,0-.73,21.24,3.77,3.77,0,0,0,1.19,2.21c1.44,1.25,2.88.47,4.09-.32a61.09,61.09,0,0,0,16.56-15.89A34.73,34.73,0,0,0,317,280.48a3.79,3.79,0,0,0,6.06,1.06,44.11,44.11,0,0,0,11.33-18.76c2.22,9.22,7.74,16.7,14.49,23.25a4.51,4.51,0,0,0,7.58-2.52,101.38,101.38,0,0,0,1.48-16.46l-1-12.57-61.43-10.4-1,4.74Z" style="fill:#fff"></path></g><polygon points="295.38 248.82 358.2 259.09 357.82 254.48 296.38 244.08 295.38 248.82" style="fill:#fff"></polygon><path d="M357.52,170.83s27.92,12.41,29.26,17.6,2.68,5.85,2.68,5.85l21.08,14.89s4.51-1.17,5.52,1a8.67,8.67,0,0,1,.83,4s4,3.85,2.85,8-7.7,6.36-7.7,6.36-1.34,7-3.85,7.36-10.54,0-13.88-3.35a54.67,54.67,0,0,1-5.58-6.52l-13.83-2.18s-8,5.52-15.22,3.18-11.21-11.71-11.21-11.71L346.8,180.9l10.73-9.37" style="fill:#37474F"></path><path d="M388.92,171.6c-1.71-.74-3.46.79-5.16,1.54a6.61,6.61,0,0,1-6.95-1.1c-1.66-1.49-2.49-3.77-4.31-5a8.08,8.08,0,0,0-5-1.18c-3.09.13-7.44,1.26-9.61,3.65-1,1.13-.3,1.86-.73,3.07s-1.78,1.41-2.78,2.15l14.87,2a10.84,10.84,0,0,0,21.16-.76C390.74,174.29,390.44,172.25,388.92,171.6Z" style="fill:#263238"></path><path d="M366.36,155.75a27.37,27.37,0,0,0-13.75,22.84,1,1,0,0,0,1.07,1.06l7.22-.11a6.19,6.19,0,0,0,4.06-2.71,14.31,14.31,0,0,0,1.92-4.61,42.35,42.35,0,0,0,1.06-15.69A1.06,1.06,0,0,0,366.36,155.75Z" style="fill:#37474F"></path><g style="opacity:0.30000000000000004"><path d="M365.49,161.61c-4.24,2.74-7.09,8.17-7.2,13.78a.61.61,0,0,0,.57.64l3.78-.07a3.28,3.28,0,0,0,2.12-1.63,9.73,9.73,0,0,0,1-2.78,29.23,29.23,0,0,0,.55-9.47A.55.55,0,0,0,365.49,161.61Z"></path></g><g style="opacity:0.30000000000000004"><path d="M413.83,215.26a1.23,1.23,0,0,1-.11-.68,1.81,1.81,0,0,1,.59-.79,2.44,2.44,0,0,0-.1-3.29l-1-.22a2.11,2.11,0,0,0-2,.76,3.2,3.2,0,0,0-.68,2.11,4.38,4.38,0,0,0,4.88,4.32A6,6,0,0,1,413.83,215.26Z"></path></g><g style="opacity:0.30000000000000004"><path d="M410.93,230.15a6.68,6.68,0,0,0-4.34-4.08c-1.51-.45-3.33-.44-4.3-1.68a2.65,2.65,0,0,1,.61-3.66,3,3,0,0,1,3.79.44,9.47,9.47,0,0,1,1.51,3.11,9.39,9.39,0,0,0,3.75,4.37"></path></g><path d="M387.85,226.29a41.21,41.21,0,0,1,15.47-22.44c1.55-1.13.05-3.73-1.51-2.6A44.45,44.45,0,0,0,385,225.49a1.5,1.5,0,0,0,2.89.8Z" style="fill:#37474F"></path><path d="M390.92,213.56A275.78,275.78,0,0,1,358,188.81c-1.45-1.27-3.58.84-2.12,2.12a278.59,278.59,0,0,0,33.49,25.22c1.63,1,3.13-1.55,1.51-2.59Z" style="fill:#37474F"></path><path d="M387.85,226.29a41.21,41.21,0,0,1,15.47-22.44c1.55-1.13.05-3.73-1.51-2.6A44.45,44.45,0,0,0,385,225.49a1.5,1.5,0,0,0,2.89.8Z" style="opacity:0.30000000000000004"></path><path d="M390.92,213.56A275.78,275.78,0,0,1,358,188.81c-1.45-1.27-3.58.84-2.12,2.12a278.59,278.59,0,0,0,33.49,25.22c1.63,1,3.13-1.55,1.51-2.59Z" style="opacity:0.30000000000000004"></path><path d="M350.76,170.83c1.14,14.78,2.75,29.53,4.39,44.26.37,3.33.74,6.67,1.17,10,.24,1.88,3.24,1.91,3,0-1.89-14.7-3.3-29.48-4.68-44.24-.31-3.34-.62-6.68-.88-10-.14-1.92-3.14-1.93-3,0Z" style="fill:#37474F"></path><path d="M396,215.76a4.49,4.49,0,1,1-4.49-4.48A4.49,4.49,0,0,1,396,215.76Z" style="fill:#37474F"></path><path d="M396,215.76a4.49,4.49,0,1,1-4.49-4.48A4.49,4.49,0,0,1,396,215.76Z" style="fill:#fff;opacity:0.30000000000000004"></path><path d="M400.8,220.25a2.91,2.91,0,1,1-2.91-2.91A2.91,2.91,0,0,1,400.8,220.25Z" style="fill:#37474F"></path><path d="M383.1,195.77c0,2.2-1,4-2.19,4s-2.19-1.77-2.19-4,1-4,2.19-4S383.1,193.58,383.1,195.77Z" style="fill:#263238"></path><path d="M350.88,171.92c1.11,14.5,2.68,29,4.29,43.44.37,3.24.73,6.49,1.15,9.73.24,1.88,3.24,1.91,3,0-1.85-14.43-3.24-28.93-4.59-43.41-.31-3.25-.6-6.5-.85-9.76-.15-1.91-3.15-1.93-3,0Z" style="opacity:0.30000000000000004"></path><path d="M360.42,186.77a6,6,0,1,1-6-6A6,6,0,0,1,360.42,186.77Z" style="fill:#37474F"></path><path d="M360.42,186.77a6,6,0,1,1-6-6A6,6,0,0,1,360.42,186.77Z" style="fill:#fff;opacity:0.30000000000000004"></path><path d="M353.13,169.78a7.15,7.15,0,0,0-5.08-1.85c-2.66.08-5.12,1.37-7.35,2.82a40.25,40.25,0,0,1-6.84,4.08c-3.71,1.48-7.94,1.33-11.58,2.95-7.37,3.28-10.47,12.81-17.93,15.85-1.75.72-3.64,1-5.39,1.75a6.26,6.26,0,0,0-3.91,3.82c-.47,1.83.82,4.12,2.71,4.08a18.54,18.54,0,0,0-12.7,15.44c-.18,1.82-.1,3.7-.8,5.39a17.09,17.09,0,0,1-3.16,4.25,23.44,23.44,0,0,0-5.28,18.21,15.18,15.18,0,0,0,3.5,8.15,9,9,0,0,0,8.07,3,9.92,9.92,0,0,0,6.51-5.34,29.28,29.28,0,0,0,2.48-8.3q2.06-10.64,4.12-21.28c1.18,1.4,1.07,3.43,1.18,5.26s.82,4,2.6,4.41c2.33.57,4-2.16,4.7-4.46a53.35,53.35,0,0,0,2.2-17.45c3.17.35,6.07-2,7.68-4.74s2.29-5.93,3.54-8.86,3.35-5.79,6.42-6.62a16,16,0,0,0,1.19,5,5.39,5.39,0,0,0,3.82,3.14c2.19.32,4.28-1.26,5.37-3.19s1.45-4.17,2-6.31c1.57-5.91,5.17-12.08,10.16-15.76,1-.73,2.36-.94,2.78-2.14" style="fill:#263238"></path><path d="M375.34,191.26a5.52,5.52,0,0,1,5.57-3.72.77.77,0,0,0,.75-.75.76.76,0,0,0-.75-.75,7,7,0,0,0-7,4.82.76.76,0,0,0,.52.92.78.78,0,0,0,.93-.52Z" style="fill:#263238"></path></g></svg>
